<svg xmlns="http://www.w3.org/2000/svg" width="1240" height="780" viewBox="0 0 1240 780">
<rect x="0" y="0" width="100%" height="100%" fill="white"/>
<text x="620.0" y="35" text-anchor="middle" font-size="24" font-family="sans-serif">GEMMul8 i32 Metric: speedup_vs_exact_i32_i32_i64</text>
<text x="480.0" y="755" text-anchor="middle" font-size="18" font-family="sans-serif">n</text>
<text x="32" y="377.5" transform="rotate(-90 32 377.5)" text-anchor="middle" font-size="18" font-family="sans-serif">Speedup vs exact int32*int32-&gt;int64 GPU baseline</text>
<line x1="100" y1="680.00" x2="860" y2="680.00" stroke="#dddddd" stroke-width="1"/>
<text x="90" y="685.00" text-anchor="end" font-size="13" font-family="monospace">0.000</text>
<line x1="100" y1="579.17" x2="860" y2="579.17" stroke="#dddddd" stroke-width="1"/>
<text x="90" y="584.17" text-anchor="end" font-size="13" font-family="monospace">0.649</text>
<line x1="100" y1="478.33" x2="860" y2="478.33" stroke="#dddddd" stroke-width="1"/>
<text x="90" y="483.33" text-anchor="end" font-size="13" font-family="monospace">1.298</text>
<line x1="100" y1="377.50" x2="860" y2="377.50" stroke="#dddddd" stroke-width="1"/>
<text x="90" y="382.50" text-anchor="end" font-size="13" font-family="monospace">1.947</text>
<line x1="100" y1="276.67" x2="860" y2="276.67" stroke="#dddddd" stroke-width="1"/>
<text x="90" y="281.67" text-anchor="end" font-size="13" font-family="monospace">2.595</text>
<line x1="100" y1="175.83" x2="860" y2="175.83" stroke="#dddddd" stroke-width="1"/>
<text x="90" y="180.83" text-anchor="end" font-size="13" font-family="monospace">3.244</text>
<line x1="100" y1="75.00" x2="860" y2="75.00" stroke="#dddddd" stroke-width="1"/>
<text x="90" y="80.00" text-anchor="end" font-size="13" font-family="monospace">3.893</text>
<line x1="100" y1="75" x2="100" y2="680" stroke="black" stroke-width="2"/>
<line x1="100" y1="680" x2="860" y2="680" stroke="black" stroke-width="2"/>
<line x1="100.00" y1="680" x2="100.00" y2="687" stroke="black" stroke-width="1"/>
<text x="100.00" y="708" text-anchor="middle" font-size="13" font-family="monospace">256</text>
<line x1="150.67" y1="680" x2="150.67" y2="687" stroke="black" stroke-width="1"/>
<text x="150.67" y="708" text-anchor="middle" font-size="13" font-family="monospace">512</text>
<line x1="252.00" y1="680" x2="252.00" y2="687" stroke="black" stroke-width="1"/>
<text x="252.00" y="708" text-anchor="middle" font-size="13" font-family="monospace">1024</text>
<line x1="454.67" y1="680" x2="454.67" y2="687" stroke="black" stroke-width="1"/>
<text x="454.67" y="708" text-anchor="middle" font-size="13" font-family="monospace">2048</text>
<line x1="860.00" y1="680" x2="860.00" y2="687" stroke="black" stroke-width="1"/>
<text x="860.00" y="708" text-anchor="middle" font-size="13" font-family="monospace">4096</text>
<polyline fill="none" stroke="#1f77b4" stroke-width="2.2" points="100.00,671.12 150.67,644.62 252.00,574.88 454.67,454.02 860.00,147.00"/>
<circle cx="100.00" cy="671.12" r="3.8" fill="#1f77b4" stroke="white" stroke-width="1"/>
<circle cx="150.67" cy="644.62" r="3.8" fill="#1f77b4" stroke="white" stroke-width="1"/>
<circle cx="252.00" cy="574.88" r="3.8" fill="#1f77b4" stroke="white" stroke-width="1"/>
<circle cx="454.67" cy="454.02" r="3.8" fill="#1f77b4" stroke="white" stroke-width="1"/>
<circle cx="860.00" cy="147.00" r="3.8" fill="#1f77b4" stroke="white" stroke-width="1"/>
<line x1="880" y1="85" x2="904" y2="85" stroke="#1f77b4" stroke-width="3"/>
<text x="910" y="90" font-size="12" font-family="sans-serif">op=NN, mod=10, use_extra=false</text>
<polyline fill="none" stroke="#d62728" stroke-width="2.2" points="100.00,667.30 150.67,635.98 252.00,539.81 454.67,414.09 860.00,98.62"/>
<circle cx="100.00" cy="667.30" r="3.8" fill="#d62728" stroke="white" stroke-width="1"/>
<circle cx="150.67" cy="635.98" r="3.8" fill="#d62728" stroke="white" stroke-width="1"/>
<circle cx="252.00" cy="539.81" r="3.8" fill="#d62728" stroke="white" stroke-width="1"/>
<circle cx="454.67" cy="414.09" r="3.8" fill="#d62728" stroke="white" stroke-width="1"/>
<circle cx="860.00" cy="98.62" r="3.8" fill="#d62728" stroke="white" stroke-width="1"/>
<line x1="880" y1="109" x2="904" y2="109" stroke="#d62728" stroke-width="3"/>
<text x="910" y="114" font-size="12" font-family="sans-serif">op=NN, mod=10, use_extra=true</text>
<polyline fill="none" stroke="#2ca02c" stroke-width="2.2" points="100.00,673.63 150.67,646.33 252.00,577.14 454.67,449.40 860.00,211.86"/>
<circle cx="100.00" cy="673.63" r="3.8" fill="#2ca02c" stroke="white" stroke-width="1"/>
<circle cx="150.67" cy="646.33" r="3.8" fill="#2ca02c" stroke="white" stroke-width="1"/>
<circle cx="252.00" cy="577.14" r="3.8" fill="#2ca02c" stroke="white" stroke-width="1"/>
<circle cx="454.67" cy="449.40" r="3.8" fill="#2ca02c" stroke="white" stroke-width="1"/>
<circle cx="860.00" cy="211.86" r="3.8" fill="#2ca02c" stroke="white" stroke-width="1"/>
<line x1="880" y1="133" x2="904" y2="133" stroke="#2ca02c" stroke-width="3"/>
<text x="910" y="138" font-size="12" font-family="sans-serif">op=NN, mod=11, use_extra=false</text>
<polyline fill="none" stroke="#ff7f0e" stroke-width="2.2" points="100.00,667.15 150.67,638.71 252.00,568.19 454.67,436.08 860.00,183.70"/>
<circle cx="100.00" cy="667.15" r="3.8" fill="#ff7f0e" stroke="white" stroke-width="1"/>
<circle cx="150.67" cy="638.71" r="3.8" fill="#ff7f0e" stroke="white" stroke-width="1"/>
<circle cx="252.00" cy="568.19" r="3.8" fill="#ff7f0e" stroke="white" stroke-width="1"/>
<circle cx="454.67" cy="436.08" r="3.8" fill="#ff7f0e" stroke="white" stroke-width="1"/>
<circle cx="860.00" cy="183.70" r="3.8" fill="#ff7f0e" stroke="white" stroke-width="1"/>
<line x1="880" y1="157" x2="904" y2="157" stroke="#ff7f0e" stroke-width="3"/>
<text x="910" y="162" font-size="12" font-family="sans-serif">op=NN, mod=11, use_extra=true</text>
<polyline fill="none" stroke="#17becf" stroke-width="2.2" points="100.00,672.87 150.67,647.96 252.00,583.13 454.67,459.73 860.00,213.33"/>
<circle cx="100.00" cy="672.87" r="3.8" fill="#17becf" stroke="white" stroke-width="1"/>
<circle cx="150.67" cy="647.96" r="3.8" fill="#17becf" stroke="white" stroke-width="1"/>
<circle cx="252.00" cy="583.13" r="3.8" fill="#17becf" stroke="white" stroke-width="1"/>
<circle cx="454.67" cy="459.73" r="3.8" fill="#17becf" stroke="white" stroke-width="1"/>
<circle cx="860.00" cy="213.33" r="3.8" fill="#17becf" stroke="white" stroke-width="1"/>
<line x1="880" y1="181" x2="904" y2="181" stroke="#17becf" stroke-width="3"/>
<text x="910" y="186" font-size="12" font-family="sans-serif">op=NN, mod=12, use_extra=false</text>
<polyline fill="none" stroke="#9467bd" stroke-width="2.2" points="100.00,667.65 150.67,642.91 252.00,563.74 454.67,430.73 860.00,146.45"/>
<circle cx="100.00" cy="667.65" r="3.8" fill="#9467bd" stroke="white" stroke-width="1"/>
<circle cx="150.67" cy="642.91" r="3.8" fill="#9467bd" stroke="white" stroke-width="1"/>
<circle cx="252.00" cy="563.74" r="3.8" fill="#9467bd" stroke="white" stroke-width="1"/>
<circle cx="454.67" cy="430.73" r="3.8" fill="#9467bd" stroke="white" stroke-width="1"/>
<circle cx="860.00" cy="146.45" r="3.8" fill="#9467bd" stroke="white" stroke-width="1"/>
<line x1="880" y1="205" x2="904" y2="205" stroke="#9467bd" stroke-width="3"/>
<text x="910" y="210" font-size="12" font-family="sans-serif">op=NN, mod=12, use_extra=true</text>
<polyline fill="none" stroke="#8c564b" stroke-width="2.2" points="100.00,672.84 150.67,651.58 252.00,587.00 454.67,475.44 860.00,214.52"/>
<circle cx="100.00" cy="672.84" r="3.8" fill="#8c564b" stroke="white" stroke-width="1"/>
<circle cx="150.67" cy="651.58" r="3.8" fill="#8c564b" stroke="white" stroke-width="1"/>
<circle cx="252.00" cy="587.00" r="3.8" fill="#8c564b" stroke="white" stroke-width="1"/>
<circle cx="454.67" cy="475.44" r="3.8" fill="#8c564b" stroke="white" stroke-width="1"/>
<circle cx="860.00" cy="214.52" r="3.8" fill="#8c564b" stroke="white" stroke-width="1"/>
<line x1="880" y1="229" x2="904" y2="229" stroke="#8c564b" stroke-width="3"/>
<text x="910" y="234" font-size="12" font-family="sans-serif">op=NN, mod=13, use_extra=false</text>
<polyline fill="none" stroke="#e377c2" stroke-width="2.2" points="100.00,670.12 150.67,642.98 252.00,560.57 454.67,440.40 860.00,115.71"/>
<circle cx="100.00" cy="670.12" r="3.8" fill="#e377c2" stroke="white" stroke-width="1"/>
<circle cx="150.67" cy="642.98" r="3.8" fill="#e377c2" stroke="white" stroke-width="1"/>
<circle cx="252.00" cy="560.57" r="3.8" fill="#e377c2" stroke="white" stroke-width="1"/>
<circle cx="454.67" cy="440.40" r="3.8" fill="#e377c2" stroke="white" stroke-width="1"/>
<circle cx="860.00" cy="115.71" r="3.8" fill="#e377c2" stroke="white" stroke-width="1"/>
<line x1="880" y1="253" x2="904" y2="253" stroke="#e377c2" stroke-width="3"/>
<text x="910" y="258" font-size="12" font-family="sans-serif">op=NN, mod=13, use_extra=true</text>
<polyline fill="none" stroke="#7f7f7f" stroke-width="2.2" points="100.00,673.34 150.67,652.53 252.00,593.87 454.67,488.91 860.00,242.70"/>
<circle cx="100.00" cy="673.34" r="3.8" fill="#7f7f7f" stroke="white" stroke-width="1"/>
<circle cx="150.67" cy="652.53" r="3.8" fill="#7f7f7f" stroke="white" stroke-width="1"/>
<circle cx="252.00" cy="593.87" r="3.8" fill="#7f7f7f" stroke="white" stroke-width="1"/>
<circle cx="454.67" cy="488.91" r="3.8" fill="#7f7f7f" stroke="white" stroke-width="1"/>
<circle cx="860.00" cy="242.70" r="3.8" fill="#7f7f7f" stroke="white" stroke-width="1"/>
<line x1="880" y1="277" x2="904" y2="277" stroke="#7f7f7f" stroke-width="3"/>
<text x="910" y="282" font-size="12" font-family="sans-serif">op=NN, mod=14, use_extra=false</text>
<polyline fill="none" stroke="#bcbd22" stroke-width="2.2" points="100.00,669.07 150.67,643.90 252.00,566.81 454.67,457.60 860.00,216.59"/>
<circle cx="100.00" cy="669.07" r="3.8" fill="#bcbd22" stroke="white" stroke-width="1"/>
<circle cx="150.67" cy="643.90" r="3.8" fill="#bcbd22" stroke="white" stroke-width="1"/>
<circle cx="252.00" cy="566.81" r="3.8" fill="#bcbd22" stroke="white" stroke-width="1"/>
<circle cx="454.67" cy="457.60" r="3.8" fill="#bcbd22" stroke="white" stroke-width="1"/>
<circle cx="860.00" cy="216.59" r="3.8" fill="#bcbd22" stroke="white" stroke-width="1"/>
<line x1="880" y1="301" x2="904" y2="301" stroke="#bcbd22" stroke-width="3"/>
<text x="910" y="306" font-size="12" font-family="sans-serif">op=NN, mod=14, use_extra=true</text>
<polyline fill="none" stroke="#1f77b4" stroke-width="2.2" points="100.00,674.01 150.67,653.32 252.00,594.57 454.67,491.38 860.00,302.84"/>
<circle cx="100.00" cy="674.01" r="3.8" fill="#1f77b4" stroke="white" stroke-width="1"/>
<circle cx="150.67" cy="653.32" r="3.8" fill="#1f77b4" stroke="white" stroke-width="1"/>
<circle cx="252.00" cy="594.57" r="3.8" fill="#1f77b4" stroke="white" stroke-width="1"/>
<circle cx="454.67" cy="491.38" r="3.8" fill="#1f77b4" stroke="white" stroke-width="1"/>
<circle cx="860.00" cy="302.84" r="3.8" fill="#1f77b4" stroke="white" stroke-width="1"/>
<line x1="880" y1="325" x2="904" y2="325" stroke="#1f77b4" stroke-width="3"/>
<text x="910" y="330" font-size="12" font-family="sans-serif">op=NN, mod=15, use_extra=false</text>
<polyline fill="none" stroke="#d62728" stroke-width="2.2" points="100.00,669.75 150.67,646.40 252.00,571.99 454.67,465.39 860.00,213.15"/>
<circle cx="100.00" cy="669.75" r="3.8" fill="#d62728" stroke="white" stroke-width="1"/>
<circle cx="150.67" cy="646.40" r="3.8" fill="#d62728" stroke="white" stroke-width="1"/>
<circle cx="252.00" cy="571.99" r="3.8" fill="#d62728" stroke="white" stroke-width="1"/>
<circle cx="454.67" cy="465.39" r="3.8" fill="#d62728" stroke="white" stroke-width="1"/>
<circle cx="860.00" cy="213.15" r="3.8" fill="#d62728" stroke="white" stroke-width="1"/>
<line x1="880" y1="349" x2="904" y2="349" stroke="#d62728" stroke-width="3"/>
<text x="910" y="354" font-size="12" font-family="sans-serif">op=NN, mod=15, use_extra=true</text>
<polyline fill="none" stroke="#2ca02c" stroke-width="2.2" points="100.00,674.26 150.67,654.49 252.00,599.55 454.67,491.66 860.00,276.76"/>
<circle cx="100.00" cy="674.26" r="3.8" fill="#2ca02c" stroke="white" stroke-width="1"/>
<circle cx="150.67" cy="654.49" r="3.8" fill="#2ca02c" stroke="white" stroke-width="1"/>
<circle cx="252.00" cy="599.55" r="3.8" fill="#2ca02c" stroke="white" stroke-width="1"/>
<circle cx="454.67" cy="491.66" r="3.8" fill="#2ca02c" stroke="white" stroke-width="1"/>
<circle cx="860.00" cy="276.76" r="3.8" fill="#2ca02c" stroke="white" stroke-width="1"/>
<line x1="880" y1="373" x2="904" y2="373" stroke="#2ca02c" stroke-width="3"/>
<text x="910" y="378" font-size="12" font-family="sans-serif">op=NN, mod=16, use_extra=false</text>
<polyline fill="none" stroke="#ff7f0e" stroke-width="2.2" points="100.00,671.57 150.67,647.37 252.00,584.79 454.67,465.18 860.00,254.67"/>
<circle cx="100.00" cy="671.57" r="3.8" fill="#ff7f0e" stroke="white" stroke-width="1"/>
<circle cx="150.67" cy="647.37" r="3.8" fill="#ff7f0e" stroke="white" stroke-width="1"/>
<circle cx="252.00" cy="584.79" r="3.8" fill="#ff7f0e" stroke="white" stroke-width="1"/>
<circle cx="454.67" cy="465.18" r="3.8" fill="#ff7f0e" stroke="white" stroke-width="1"/>
<circle cx="860.00" cy="254.67" r="3.8" fill="#ff7f0e" stroke="white" stroke-width="1"/>
<line x1="880" y1="397" x2="904" y2="397" stroke="#ff7f0e" stroke-width="3"/>
<text x="910" y="402" font-size="12" font-family="sans-serif">op=NN, mod=16, use_extra=true</text>
<polyline fill="none" stroke="#17becf" stroke-width="2.2" points="100.00,674.42 150.67,655.13 252.00,601.00 454.67,501.12 860.00,303.94"/>
<circle cx="100.00" cy="674.42" r="3.8" fill="#17becf" stroke="white" stroke-width="1"/>
<circle cx="150.67" cy="655.13" r="3.8" fill="#17becf" stroke="white" stroke-width="1"/>
<circle cx="252.00" cy="601.00" r="3.8" fill="#17becf" stroke="white" stroke-width="1"/>
<circle cx="454.67" cy="501.12" r="3.8" fill="#17becf" stroke="white" stroke-width="1"/>
<circle cx="860.00" cy="303.94" r="3.8" fill="#17becf" stroke="white" stroke-width="1"/>
<line x1="880" y1="421" x2="904" y2="421" stroke="#17becf" stroke-width="3"/>
<text x="910" y="426" font-size="12" font-family="sans-serif">op=NN, mod=17, use_extra=false</text>
<polyline fill="none" stroke="#9467bd" stroke-width="2.2" points="100.00,671.44 150.67,647.39 252.00,585.00 454.67,476.54 860.00,250.36"/>
<circle cx="100.00" cy="671.44" r="3.8" fill="#9467bd" stroke="white" stroke-width="1"/>
<circle cx="150.67" cy="647.39" r="3.8" fill="#9467bd" stroke="white" stroke-width="1"/>
<circle cx="252.00" cy="585.00" r="3.8" fill="#9467bd" stroke="white" stroke-width="1"/>
<circle cx="454.67" cy="476.54" r="3.8" fill="#9467bd" stroke="white" stroke-width="1"/>
<circle cx="860.00" cy="250.36" r="3.8" fill="#9467bd" stroke="white" stroke-width="1"/>
<line x1="880" y1="445" x2="904" y2="445" stroke="#9467bd" stroke-width="3"/>
<text x="910" y="450" font-size="12" font-family="sans-serif">op=NN, mod=17, use_extra=true</text>
<polyline fill="none" stroke="#8c564b" stroke-width="2.2" points="100.00,674.60 150.67,655.82 252.00,603.15 454.67,506.41 860.00,315.79"/>
<circle cx="100.00" cy="674.60" r="3.8" fill="#8c564b" stroke="white" stroke-width="1"/>
<circle cx="150.67" cy="655.82" r="3.8" fill="#8c564b" stroke="white" stroke-width="1"/>
<circle cx="252.00" cy="603.15" r="3.8" fill="#8c564b" stroke="white" stroke-width="1"/>
<circle cx="454.67" cy="506.41" r="3.8" fill="#8c564b" stroke="white" stroke-width="1"/>
<circle cx="860.00" cy="315.79" r="3.8" fill="#8c564b" stroke="white" stroke-width="1"/>
<line x1="880" y1="469" x2="904" y2="469" stroke="#8c564b" stroke-width="3"/>
<text x="910" y="474" font-size="12" font-family="sans-serif">op=NN, mod=18, use_extra=false</text>
<polyline fill="none" stroke="#e377c2" stroke-width="2.2" points="100.00,672.00 150.67,649.98 252.00,578.75 454.67,486.88 860.00,244.98"/>
<circle cx="100.00" cy="672.00" r="3.8" fill="#e377c2" stroke="white" stroke-width="1"/>
<circle cx="150.67" cy="649.98" r="3.8" fill="#e377c2" stroke="white" stroke-width="1"/>
<circle cx="252.00" cy="578.75" r="3.8" fill="#e377c2" stroke="white" stroke-width="1"/>
<circle cx="454.67" cy="486.88" r="3.8" fill="#e377c2" stroke="white" stroke-width="1"/>
<circle cx="860.00" cy="244.98" r="3.8" fill="#e377c2" stroke="white" stroke-width="1"/>
<line x1="880" y1="493" x2="904" y2="493" stroke="#e377c2" stroke-width="3"/>
<text x="910" y="498" font-size="12" font-family="sans-serif">op=NN, mod=18, use_extra=true</text>
<polyline fill="none" stroke="#7f7f7f" stroke-width="2.2" points="100.00,674.86 150.67,656.27 252.00,606.05 454.67,519.16 860.00,331.13"/>
<circle cx="100.00" cy="674.86" r="3.8" fill="#7f7f7f" stroke="white" stroke-width="1"/>
<circle cx="150.67" cy="656.27" r="3.8" fill="#7f7f7f" stroke="white" stroke-width="1"/>
<circle cx="252.00" cy="606.05" r="3.8" fill="#7f7f7f" stroke="white" stroke-width="1"/>
<circle cx="454.67" cy="519.16" r="3.8" fill="#7f7f7f" stroke="white" stroke-width="1"/>
<circle cx="860.00" cy="331.13" r="3.8" fill="#7f7f7f" stroke="white" stroke-width="1"/>
<line x1="880" y1="517" x2="904" y2="517" stroke="#7f7f7f" stroke-width="3"/>
<text x="910" y="522" font-size="12" font-family="sans-serif">op=NN, mod=19, use_extra=false</text>
<polyline fill="none" stroke="#bcbd22" stroke-width="2.2" points="100.00,671.07 150.67,649.55 252.00,587.91 454.67,494.78 860.00,327.96"/>
<circle cx="100.00" cy="671.07" r="3.8" fill="#bcbd22" stroke="white" stroke-width="1"/>
<circle cx="150.67" cy="649.55" r="3.8" fill="#bcbd22" stroke="white" stroke-width="1"/>
<circle cx="252.00" cy="587.91" r="3.8" fill="#bcbd22" stroke="white" stroke-width="1"/>
<circle cx="454.67" cy="494.78" r="3.8" fill="#bcbd22" stroke="white" stroke-width="1"/>
<circle cx="860.00" cy="327.96" r="3.8" fill="#bcbd22" stroke="white" stroke-width="1"/>
<line x1="880" y1="541" x2="904" y2="541" stroke="#bcbd22" stroke-width="3"/>
<text x="910" y="546" font-size="12" font-family="sans-serif">op=NN, mod=19, use_extra=true</text>
<polyline fill="none" stroke="#1f77b4" stroke-width="2.2" points="100.00,675.01 150.67,657.00 252.00,609.27 454.67,523.70 860.00,352.59"/>
<circle cx="100.00" cy="675.01" r="3.8" fill="#1f77b4" stroke="white" stroke-width="1"/>
<circle cx="150.67" cy="657.00" r="3.8" fill="#1f77b4" stroke="white" stroke-width="1"/>
<circle cx="252.00" cy="609.27" r="3.8" fill="#1f77b4" stroke="white" stroke-width="1"/>
<circle cx="454.67" cy="523.70" r="3.8" fill="#1f77b4" stroke="white" stroke-width="1"/>
<circle cx="860.00" cy="352.59" r="3.8" fill="#1f77b4" stroke="white" stroke-width="1"/>
<line x1="880" y1="565" x2="904" y2="565" stroke="#1f77b4" stroke-width="3"/>
<text x="910" y="570" font-size="12" font-family="sans-serif">op=NN, mod=20, use_extra=false</text>
<polyline fill="none" stroke="#d62728" stroke-width="2.2" points="100.00,671.89 150.67,650.75 252.00,588.94 454.67,491.05 860.00,302.12"/>
<circle cx="100.00" cy="671.89" r="3.8" fill="#d62728" stroke="white" stroke-width="1"/>
<circle cx="150.67" cy="650.75" r="3.8" fill="#d62728" stroke="white" stroke-width="1"/>
<circle cx="252.00" cy="588.94" r="3.8" fill="#d62728" stroke="white" stroke-width="1"/>
<circle cx="454.67" cy="491.05" r="3.8" fill="#d62728" stroke="white" stroke-width="1"/>
<circle cx="860.00" cy="302.12" r="3.8" fill="#d62728" stroke="white" stroke-width="1"/>
<line x1="880" y1="589" x2="904" y2="589" stroke="#d62728" stroke-width="3"/>
<text x="910" y="594" font-size="12" font-family="sans-serif">op=NN, mod=20, use_extra=true</text>
<polyline fill="none" stroke="#2ca02c" stroke-width="2.2" points="100.00,670.74 150.67,644.80 252.00,562.54 454.67,441.16 860.00,142.54"/>
<circle cx="100.00" cy="670.74" r="3.8" fill="#2ca02c" stroke="white" stroke-width="1"/>
<circle cx="150.67" cy="644.80" r="3.8" fill="#2ca02c" stroke="white" stroke-width="1"/>
<circle cx="252.00" cy="562.54" r="3.8" fill="#2ca02c" stroke="white" stroke-width="1"/>
<circle cx="454.67" cy="441.16" r="3.8" fill="#2ca02c" stroke="white" stroke-width="1"/>
<circle cx="860.00" cy="142.54" r="3.8" fill="#2ca02c" stroke="white" stroke-width="1"/>
<line x1="880" y1="613" x2="904" y2="613" stroke="#2ca02c" stroke-width="3"/>
<text x="910" y="618" font-size="12" font-family="sans-serif">op=NN, mod=9, use_extra=false</text>
<polyline fill="none" stroke="#ff7f0e" stroke-width="2.2" points="100.00,665.21 150.67,634.57 252.00,554.54 454.67,436.12 860.00,75.00"/>
<circle cx="100.00" cy="665.21" r="3.8" fill="#ff7f0e" stroke="white" stroke-width="1"/>
<circle cx="150.67" cy="634.57" r="3.8" fill="#ff7f0e" stroke="white" stroke-width="1"/>
<circle cx="252.00" cy="554.54" r="3.8" fill="#ff7f0e" stroke="white" stroke-width="1"/>
<circle cx="454.67" cy="436.12" r="3.8" fill="#ff7f0e" stroke="white" stroke-width="1"/>
<circle cx="860.00" cy="75.00" r="3.8" fill="#ff7f0e" stroke="white" stroke-width="1"/>
<line x1="880" y1="637" x2="904" y2="637" stroke="#ff7f0e" stroke-width="3"/>
<text x="910" y="642" font-size="12" font-family="sans-serif">op=NN, mod=9, use_extra=true</text>
</svg>